Patient4_TMGait_0pt8_01_right_50_GRF.mot
version=1
nRows=78
nColumns=19
inDegrees=no
endheader
time	F1x	F1y	F1z	M1x	M1y	M1z	F2x	F2y	F2z	M2x	M2y	M2z	EC1x	EC1y	EC1z	EC2x	EC2y	EC2z
56.31	-24.253	746.6906	71.6214	-285.499	-83.3896	838.9293	-0.42672	19.4114	8.5536	1.5651	-2.4068	19.7206	-0.0592	0.0182	-0.0073	-0.0462	0.0165	0.9585
56.3213	-17.9382	733.5487	68.7462	-280.2299	-78.6058	821.3467	-0.34718	13.818	5.7235	1.3089	-1.4243	14.1707	-0.0592	0.0182	-0.0073	-0.0462	0.0165	0.9585
56.3326	-11.4885	720.0536	65.8493	-274.8435	-73.4926	802.3007	-0.25736	9.1305	3.3212	1.1043	-0.60278	9.5286	-0.0592	0.0182	-0.0073	-0.0462	0.0165	0.9585
56.3439	-5.1246	707.5097	63.0768	-269.8594	-68.2606	783.3404	-0.1643	5.601	1.4878	0.95969	0.013192	6.0434	-0.0592	0.0182	-0.0073	-0.0462	0.0165	0.9585
56.3551	1.0794	697.1171	60.5441	-265.7376	-63.0824	765.9775	-0.10935	3.2249	0.22111	0.87631	0.43435	3.7235	-0.0592	0.0182	-0.0073	-0.0462	0.0165	0.9585
56.3664	7.1251	689.7968	58.3332	-262.8188	-58.0907	751.4285	-0.080894	1.8308	-0.56201	0.8451	0.68985	2.3846	-0.0592	0.0182	-0.0073	-0.0462	0.0165	0.9585
56.3777	13.041	686.1638	56.502	-261.3086	-53.3894	740.5871	-0.090811	1.1706	-0.97706	0.84667	0.82919	1.7884	-0.0592	0.0182	-0.0073	-0.0462	0.0165	0.9585
56.389	18.8223	686.4915	55.1173	-261.2699	-49.0939	733.9332	-0.1196	0.98469	-1.1474	0.85829	0.89987	1.6549	-0.0592	0.0182	-0.0073	-0.0462	0.0165	0.9585
56.4003	24.4348	690.7107	54.2324	-262.6301	-45.3116	731.5525	-0.18347	1.0376	-1.1824	0.856	0.95502	1.7405	-0.0592	0.0182	-0.0073	-0.0462	0.0165	0.9585
56.4116	29.7945	698.4898	53.9221	-265.2129	-42.1798	733.1816	-0.27653	1.1086	-1.1683	0.80813	1.0372	1.8018	-0.0592	0.0182	-0.0073	-0.0462	0.0165	0.9585
56.4229	34.7656	709.2235	54.2295	-268.7566	-39.8135	738.228	-0.40632	1.0344	-1.1708	0.68578	1.1852	1.6517	-0.0592	0.0182	-0.0073	-0.0462	0.0165	0.9585
56.4341	39.2272	722.2125	55.1517	-272.981	-38.2697	745.9733	-0.56516	0.66147	-1.2254	0.45509	1.4145	1.1054	-0.0592	0.0182	-0.0073	-0.0462	0.0165	0.9585
56.4454	43.0826	736.6757	56.6113	-277.599	-37.515	755.5713	-0.74751	-0.1003	-1.3351	0.092623	1.7111	0.068822	-0.0592	0.0182	-0.0073	-0.0462	0.0165	0.9585
56.4567	46.2841	751.7968	58.5044	-282.3286	-37.4661	766.1195	-0.92536	-1.2989	-1.4768	-0.41384	2.0264	-1.5158	-0.0592	0.0182	-0.0073	-0.0462	0.0165	0.9585
56.468	48.8666	766.806	60.7182	-286.9165	-37.9919	776.7502	-1.06	-2.904	-1.5956	-1.0515	2.2753	-3.6107	-0.0592	0.0182	-0.0073	-0.0462	0.0165	0.9585
56.4793	50.93	781.0137	63.1389	-291.1474	-38.9296	786.6623	-1.0659	-4.7453	-1.6019	-1.7582	2.3154	-6.0066	-0.0592	0.0182	-0.0073	-0.0462	0.0165	0.9585
56.4906	52.6551	793.836	65.6989	-294.8434	-40.1302	795.1667	-0.85422	-6.4926	-1.3693	-2.4056	1.9456	-8.2795	-0.0592	0.0182	-0.0073	-0.0462	0.0165	0.9585
56.5019	54.2328	804.7122	68.3067	-297.8372	-41.4199	801.6304	-0.29409	-7.5546	-0.73907	-2.7653	0.90857	-9.6745	-0.0592	0.0182	-0.0073	-0.0462	0.0165	0.9585
56.5131	55.8475	813.0644	70.8896	-299.9538	-42.6509	805.4264	0.76568	-7.0672	0.47927	-2.498	-1.0941	-9.0937	-0.0592	0.0182	-0.0073	-0.0462	0.0165	0.9585
56.5244	57.644	818.3408	73.3132	-301.0259	-43.6507	806.0073	2.4768	-3.8453	2.4745	-1.1397	-4.3523	-5.0256	-0.0592	0.0182	-0.0073	-0.0462	0.0165	0.9585
56.5357	59.707	820.028	75.4408	-300.8935	-44.2774	802.8936	4.9648	3.5979	5.3926	1.8879	-9.081	4.4341	-0.0592	0.0182	-0.0073	-0.0462	0.0165	0.9585
56.547	62.064	817.7135	77.0907	-299.4239	-44.3717	795.7476	8.2375	16.9054	9.2496	7.2179	-15.284	21.3949	-0.0592	0.0182	-0.0073	-0.0462	0.0165	0.9585
56.5583	64.7124	810.9941	78.0561	-296.4819	-43.7711	784.2581	12.1192	37.6142	13.846	15.4281	-22.6056	47.8142	-0.0592	0.0182	-0.0073	-0.0462	0.0165	0.9585
56.5696	67.5602	799.4086	78.1238	-291.9008	-42.3357	768.1003	16.0539	66.6957	18.6009	26.8567	-30.0626	84.942	-0.0592	0.0182	-0.0073	-0.0462	0.0165	0.9585
56.5809	70.5026	782.3337	77.0893	-285.4514	-39.941	746.8266	18.7839	104.0274	22.5373	41.3906	-35.8924	132.6318	-0.0592	0.0182	-0.0073	-0.0462	0.0165	0.9585
56.5921	73.3176	759.0221	74.804	-276.8513	-36.5501	719.9095	18.4076	147.8835	24.216	58.2685	-37.5299	188.7196	-0.0592	0.0182	-0.0073	-0.0462	0.0165	0.9585
56.6034	75.719	728.6641	71.1597	-265.7969	-32.1928	686.7549	13.8484	195.3905	21.9781	76.2839	-32.5503	249.5996	-0.0592	0.0182	-0.0073	-0.0462	0.0165	0.9585
56.6147	77.3023	690.6008	66.1456	-252.0314	-27.0267	646.9465	5.8413	243.7549	15.3954	94.3135	-20.6945	311.6675	-0.0592	0.0182	-0.0073	-0.0462	0.0165	0.9585
56.626	77.632	644.5312	59.853	-235.4216	-21.3133	600.3521	-4.1761	290.3653	5.2759	111.4065	-3.5826	371.3665	-0.0592	0.0182	-0.0073	-0.0462	0.0165	0.9585
56.6373	76.2805	590.6874	52.5157	-216.022	-15.4291	547.3328	-14.8554	333.7765	-6.6165	127.1352	15.8938	426.5749	-0.0592	0.0182	-0.0073	-0.0462	0.0165	0.9585
56.6486	72.9265	530.0204	44.4421	-194.1408	-9.7654	488.8466	-25.0493	374.6987	-17.9589	141.9146	34.3849	477.937	-0.0592	0.0182	-0.0073	-0.0462	0.0165	0.9585
56.6599	67.4069	464.1774	36.0361	-170.3383	-4.7131	426.4403	-34.2609	415.1559	-27.5175	156.5959	50.0876	527.9493	-0.0592	0.0182	-0.0073	-0.0462	0.0165	0.9585
56.6711	59.8024	395.4775	27.758	-145.4226	-0.6098	362.2058	-42.0825	456.7186	-34.5294	171.8383	61.9525	578.5475	-0.0592	0.0182	-0.0073	-0.0462	0.0165	0.9585
56.6824	50.4532	326.7134	20.0717	-120.3898	2.3077	298.597	-48.2998	499.8419	-38.987	187.8175	69.8654	630.3064	-0.0592	0.0182	-0.0073	-0.0462	0.0165	0.9585
56.6937	40.0099	260.8634	13.3913	-96.322	3.9523	238.1884	-52.7898	543.9722	-41.2995	204.2833	74.3363	682.4963	-0.0592	0.0182	-0.0073	-0.0462	0.0165	0.9585
56.705	29.3782	200.723	7.9832	-74.2527	4.4537	183.3391	-55.6871	587.891	-42.4324	220.677	76.6036	733.679	-0.0592	0.0182	-0.0073	-0.0462	0.0165	0.9585
56.7163	19.5086	148.3971	3.9783	-54.9775	4.0693	135.7919	-57.2386	630.0256	-43.3804	236.2995	78.0035	782.0085	-0.0592	0.0182	-0.0073	-0.0462	0.0165	0.9585
56.7276	11.1833	104.9498	1.3004	-38.9207	3.1597	96.3658	-57.8539	668.8301	-44.9872	250.4737	79.7262	825.7568	-0.0592	0.0182	-0.0073	-0.0462	0.0165	0.9585
56.7389	4.7793	70.3692	-0.25106	-26.1094	2.0308	64.9659	-57.9667	703.1543	-47.7335	262.7132	82.5182	863.6835	-0.0592	0.0182	-0.0073	-0.0462	0.0165	0.9585
56.7501	0.29278	43.958	-0.95976	-16.3099	0.91196	40.9238	-57.9543	732.4528	-51.5434	272.8018	86.4562	895.2643	-0.0592	0.0182	-0.0073	-0.0462	0.0165	0.9585
56.7614	-2.5004	24.6941	-1.1195	-9.1576	-0.032279	23.3376	-58.0326	756.5895	-56.034	280.7219	91.1673	920.4487	-0.0592	0.0182	-0.0073	-0.0462	0.0165	0.9585
56.7727	-3.8628	11.4418	-0.96749	-4.2386	-0.70638	11.1787	-58.1743	775.6041	-60.507	286.5571	95.8486	939.337	-0.0592	0.0182	-0.0073	-0.0462	0.0165	0.9585
56.784	-4.151	3.0727	-0.704	-1.1341	-1.0698	3.45	-58.2377	789.4471	-64.4221	290.3643	99.811	951.9106	-0.0592	0.0182	-0.0073	-0.0462	0.0165	0.9585
56.7953	-3.7744	-1.5383	-0.40721	0.57505	-1.2109	-0.87136	-58.0125	797.8869	-67.3768	292.1288	102.5209	957.9265	-0.0592	0.0182	-0.0073	-0.0462	0.0165	0.9585
56.8066	-3.1071	-3.4794	-0.15482	1.2952	-1.1947	-2.7479	-57.3457	800.6596	-69.3266	291.7982	103.8644	957.119	-0.0592	0.0182	-0.0073	-0.0462	0.0165	0.9585
56.8179	-2.3524	-3.7265	0.049978	1.3881	-1.1013	-3.0658	-56.1306	797.652	-70.3901	289.3685	103.9439	949.3871	-0.0592	0.0182	-0.0073	-0.0462	0.0165	0.9585
56.8291	-1.6703	-3.0364	0.18364	1.1346	-0.96506	-2.4882	-54.3428	789.2357	-70.7537	285.0035	102.9747	935.2279	-0.0592	0.0182	-0.0073	-0.0462	0.0165	0.9585
56.8404	-1.1025	-1.9407	0.25968	0.73029	-0.81677	-1.5128	-51.9985	776.307	-70.5558	279.0684	101.1427	915.7242	-0.0592	0.0182	-0.0073	-0.0462	0.0165	0.9585
56.8517	-0.69001	-0.75836	0.2842	0.29454	-0.67511	-0.4018	-49.1551	760.3018	-69.8726	272.1179	98.5887	892.5792	-0.0592	0.0182	-0.0073	-0.0462	0.0165	0.9585
56.863	-0.40068	0.31344	0.26963	-0.10038	-0.54057	0.63603	-45.8588	742.8869	-68.798	264.7869	95.4647	867.724	-0.0592	0.0182	-0.0073	-0.0462	0.0165	0.9585
56.8743	-0.23021	1.2015	0.23593	-0.42488	-0.42506	1.5343	-42.1986	725.7424	-67.4156	257.703	91.9171	843.0983	-0.0592	0.0182	-0.0073	-0.0462	0.0165	0.9585
56.8856	-0.13131	1.868	0.19335	-0.6698	-0.32127	2.227	-38.2194	710.3566	-65.8607	251.4113	88.1265	820.3925	-0.0592	0.0182	-0.0073	-0.0462	0.0165	0.9585
56.8969	-0.099362	2.3468	0.15829	-0.84693	-0.24473	2.763	-33.9938	697.9039	-64.2641	246.3304	84.2689	800.93	-0.0592	0.0182	-0.0073	-0.0462	0.0165	0.9585
56.9081	-0.095077	2.6494	0.13837	-0.96551	-0.19339	3.1367	-29.5679	689.1745	-62.7523	242.7343	80.5009	785.5484	-0.0592	0.0182	-0.0073	-0.0462	0.0165	0.9585
56.9194	-0.11449	2.8397	0.12667	-1.0464	-0.16489	3.4011	-25.0133	684.59	-61.4276	240.7611	76.9488	774.6644	-0.0592	0.0182	-0.0073	-0.0462	0.0165	0.9585
56.9307	-0.14464	2.941	0.13441	-1.0991	-0.16801	3.5583	-20.3594	684.1994	-60.3342	240.4189	73.6613	768.2561	-0.0592	0.0182	-0.0073	-0.0462	0.0165	0.9585
56.942	-0.19842	2.9729	0.1497	-1.1282	-0.20054	3.6227	-15.6434	687.7256	-59.5046	241.5997	70.6682	765.9529	-0.0592	0.0182	-0.0073	-0.0462	0.0165	0.9585
56.9533	-0.27589	2.9204	0.1899	-1.1252	-0.28103	3.558	-10.8537	694.5723	-58.9205	244.0861	67.9383	767.0379	-0.0592	0.0182	-0.0073	-0.0462	0.0165	0.9585
56.9646	-0.40368	2.7579	0.24344	-1.076	-0.40493	3.3441	-5.9812	703.9278	-58.5596	247.5793	65.4316	770.591	-0.0592	0.0182	-0.0073	-0.0462	0.0165	0.9585
56.9759	-0.58429	2.4285	0.32736	-0.95683	-0.58817	2.9131	-0.9642	714.8346	-58.3892	251.7301	63.0812	775.54	-0.0592	0.0182	-0.0073	-0.0462	0.0165	0.9585
56.9871	-0.83424	1.8666	0.43385	-0.74336	-0.82734	2.1989	4.2545	726.3503	-58.3696	256.192	60.8116	780.8658	-0.0592	0.0182	-0.0073	-0.0462	0.0165	0.9585
56.9984	-1.1248	1.0019	0.55867	-0.40859	-1.1074	1.1104	9.7045	737.6704	-58.4681	260.6632	58.5674	785.7285	-0.0592	0.0182	-0.0073	-0.0462	0.0165	0.9585
57.0097	-1.4255	-0.22243	0.68901	0.070197	-1.3935	-0.42295	15.2841	748.1707	-58.6469	264.8976	56.3353	789.5463	-0.0592	0.0182	-0.0073	-0.0462	0.0165	0.9585
57.021	-1.6393	-1.8371	0.80343	0.70089	-1.6174	-2.4519	20.8044	757.3443	-58.8976	268.6797	54.1683	791.9427	-0.0592	0.0182	-0.0073	-0.0462	0.0165	0.9585
57.0323	-1.6417	-3.7792	0.87333	1.4587	-1.691	-4.9018	25.968	764.696	-59.2199	271.7886	52.1647	792.5997	-0.0592	0.0182	-0.0073	-0.0462	0.0165	0.9585
57.0436	-1.2425	-5.8582	0.84454	2.2666	-1.4749	-7.534	30.4534	769.6773	-59.6593	273.98	50.4777	791.1677	-0.0592	0.0182	-0.0073	-0.0462	0.0165	0.9585
57.0549	-0.2011	-7.6375	0.65351	2.9553	-0.79347	-9.7916	33.956	771.7743	-60.2512	275.0237	49.2445	787.3435	-0.0592	0.0182	-0.0073	-0.0462	0.0165	0.9585
57.0661	1.7648	-8.3857	0.21392	3.2354	0.56859	-10.7599	36.2707	770.6413	-61.0157	274.765	48.5579	780.9425	-0.0592	0.0182	-0.0073	-0.0462	0.0165	0.9585
57.0774	4.9217	-6.9952	-0.5648	2.67	2.8283	-9.0635	37.3667	766.3483	-61.9042	273.2178	48.3981	772.1219	-0.0592	0.0182	-0.0073	-0.0462	0.0165	0.9585
57.0887	9.4585	-1.9623	-1.7676	0.66939	6.1602	-2.8343	37.3799	759.387	-62.7928	270.568	48.6223	761.3671	-0.0592	0.0182	-0.0073	-0.0462	0.0165	0.9585
57.1	15.3528	8.5347	-3.4489	-3.4804	10.6206	10.2156	36.6199	750.4804	-63.5513	267.0976	49.0248	749.3033	-0.0592	0.0182	-0.0073	-0.0462	0.0165	0.9585
57.1113	22.2152	26.4638	-5.5732	-10.5428	16.0091	32.59	35.5251	740.3362	-64.0506	263.0922	49.3493	736.48	-0.0592	0.0182	-0.0073	-0.0462	0.0165	0.9585
57.1226	29.074	53.5069	-7.9787	-21.1646	21.7273	66.4636	34.5773	729.3998	-64.2216	258.7466	49.3698	723.1473	-0.0592	0.0182	-0.0073	-0.0462	0.0165	0.9585
57.1339	34.1181	90.4513	-10.2797	-35.6284	26.5612	112.8915	34.1843	717.6656	-63.9935	254.094	48.8716	709.1217	-0.0592	0.0182	-0.0073	-0.0462	0.0165	0.9585
57.1451	34.7511	136.4336	-11.7738	-53.5721	28.6337	170.8889	34.6234	704.5455	-63.2992	248.9606	47.6828	693.7089	-0.0592	0.0182	-0.0073	-0.0462	0.0165	0.9585
57.1564	28.9361	189.3825	-11.7057	-74.1475	26.2372	237.9813	35.9748	688.9381	-62.0438	242.9884	45.6749	675.7838	-0.0592	0.0182	-0.0073	-0.0462	0.0165	0.9585
57.1677	16.9262	246.7007	-9.5226	-96.2787	18.7438	310.922	38.1077	669.4291	-60.1062	235.7023	42.7768	653.9841	-0.0592	0.0182	-0.0073	-0.0462	0.0165	0.9585
57.179	1.352	304.4006	-4.7012	-118.3514	6.5064	384.498	40.7009	644.4989	-57.3756	226.5842	39.0035	626.942	-0.0592	0.0182	-0.0073	-0.0462	0.0165	0.9585
